<?xml version="1.0" standalone="no"?>
<!DOCTYPE svg PUBLIC "-//W3C//DTD SVG 20010904//EN"
 "http://www.w3.org/TR/2001/REC-SVG-20010904/DTD/svg10.dtd">
<svg version="1.0" xmlns="http://www.w3.org/2000/svg"
 width="401.000000pt" height="401.000000pt" viewBox="0 0 401.000000 401.000000"
 preserveAspectRatio="xMidYMid meet">
<metadata>
Created by potrace 1.11, written by Peter Selinger 2001-2013
</metadata>
<g transform="translate(0.000000,401.000000) scale(0.100000,-0.100000)"
fill="#000000" stroke="none">
<path d="M1835 3965 l-25 -24 0 -256 c0 -242 1 -256 20 -275 25 -25 61 -26 91
-1 l24 19 0 262 0 262 -24 19 c-31 26 -57 24 -86 -6z"/>
<path d="M580 3450 c-44 -44 -33 -62 163 -257 195 -196 213 -207 257 -163 44
44 33 62 -163 257 -195 196 -213 207 -257 163z"/>
<path d="M2917 3282 c-103 -104 -187 -194 -187 -201 0 -16 20 -54 34 -63 6 -4
24 -8 40 -8 25 0 57 27 199 168 93 92 175 179 183 194 24 46 -10 98 -63 98
-11 0 -97 -79 -206 -188z"/>
<path d="M1718 3175 c-226 -37 -426 -142 -585 -308 -130 -136 -212 -282 -260
-465 -22 -82 -26 -119 -26 -242 -1 -159 11 -230 62 -369 94 -258 277 -454 535
-577 125 -59 232 -84 391 -91 295 -12 540 79 752 281 201 191 307 420 320 692
7 139 -7 250 -44 369 -110 348 -392 608 -756 695 -110 27 -279 33 -389 15z
m340 -141 c105 -21 206 -62 299 -120 85 -53 211 -171 261 -245 248 -366 204
-846 -105 -1155 -400 -400 -1067 -335 -1382 137 -103 154 -151 313 -151 505 0
235 79 435 239 606 138 148 292 235 481 273 92 19 266 18 358 -1z"/>
<path d="M65 2195 c-30 -29 -32 -55 -6 -86 l19 -24 262 0 262 0 19 24 c27 33
24 66 -7 90 -25 20 -39 21 -276 21 l-249 0 -24 -25z"/>
<path d="M3147 2209 c-26 -15 -36 -49 -25 -81 16 -44 55 -50 314 -46 211 3
234 5 253 22 27 24 27 70 1 96 -19 19 -33 20 -272 20 -159 0 -260 -5 -271 -11z"/>
<path d="M748 1113 c-109 -109 -188 -195 -188 -206 0 -53 52 -87 98 -63 15 8
102 90 195 183 144 146 167 174 167 200 0 33 -38 73 -68 73 -9 0 -100 -84
-204 -187z"/>
<path d="M2750 1274 c-8 -8 -13 -29 -13 -45 0 -26 26 -57 179 -210 157 -157
183 -179 211 -179 40 0 63 23 63 63 0 28 -22 54 -177 209 -165 165 -180 178
-214 178 -21 0 -42 -7 -49 -16z"/>
<path d="M1826 888 c-14 -19 -16 -62 -16 -273 0 -211 2 -254 16 -273 20 -29
74 -30 100 -1 18 20 19 39 19 274 0 235 -1 254 -19 274 -26 29 -80 28 -100 -1z"/>
</g>
</svg>
