<?xml version="1.0" standalone="no"?>
<!DOCTYPE svg PUBLIC "-//W3C//DTD SVG 20010904//EN"
 "http://www.w3.org/TR/2001/REC-SVG-20010904/DTD/svg10.dtd">
<svg version="1.0" xmlns="http://www.w3.org/2000/svg"
 width="1732.000000pt" height="1732.000000pt" viewBox="0 0 1732.000000 1732.000000"
 preserveAspectRatio="xMidYMid meet">
<metadata>
Created by potrace 1.11, written by Peter Selinger 2001-2013
</metadata>
<g transform="translate(0.000000,1732.000000) scale(0.100000,-0.100000)"
fill="#000000" stroke="none">
<path d="M8026 17303 c-106 -32 -182 -114 -202 -218 -4 -22 -7 -517 -7 -1101
l0 -1061 26 -54 c43 -89 101 -140 187 -162 159 -41 319 52 356 208 6 24 9 455
9 1100 -1 1203 4 1123 -82 1211 -77 78 -186 107 -287 77z"/>
<path d="M9085 16126 c-64 -29 -111 -77 -143 -146 l-26 -55 -1 -1065 c-1 -586
2 -1081 6 -1100 5 -19 7 -36 5 -37 -1 -2 -26 1 -54 7 -28 5 -73 12 -99 15 -26
4 -59 8 -73 10 -14 2 -52 7 -85 10 -33 4 -76 8 -95 10 -200 22 -647 23 -830 0
-14 -1 -56 -6 -95 -9 -61 -6 -212 -28 -285 -42 -31 -6 -53 -10 -105 -19 -22
-3 -94 -20 -160 -36 -66 -17 -129 -32 -139 -35 -38 -7 -223 -66 -336 -106
-395 -140 -811 -361 -1150 -611 -93 -69 -277 -216 -327 -263 l-25 -23 -367
367 c-245 245 -372 379 -381 402 -7 19 -22 47 -32 62 -23 33 -1480 1491 -1523
1523 -62 47 -177 63 -260 35 -61 -20 -130 -83 -161 -146 -22 -45 -28 -72 -28
-123 0 -127 -8 -117 572 -697 422 -422 524 -530 538 -565 9 -24 27 -58 39 -74
12 -17 284 -292 604 -612 319 -319 581 -585 581 -591 0 -5 -17 -29 -38 -53
-146 -167 -348 -461 -481 -699 -154 -275 -330 -696 -397 -950 -2 -8 -18 -67
-35 -130 -16 -63 -34 -137 -40 -165 -5 -27 -11 -61 -14 -75 -3 -14 -7 -36 -10
-50 -2 -14 -7 -38 -10 -55 -3 -16 -7 -41 -10 -54 -2 -13 -7 -49 -11 -80 -3
-31 -8 -58 -9 -61 -2 -3 -6 -41 -10 -85 -4 -44 -9 -88 -10 -97 -22 -111 -22
-712 -1 -838 3 -14 7 -52 10 -85 7 -70 14 -120 20 -155 3 -14 8 -45 11 -70 4
-25 13 -79 21 -120 8 -41 14 -76 14 -77 0 -1 -23 10 -52 25 l-52 27 -1101 0
-1100 0 -47 -23 c-104 -52 -161 -143 -162 -262 -1 -123 58 -216 171 -267 l54
-25 1067 0 c587 0 1082 3 1101 6 74 14 161 80 193 147 l15 30 23 -78 c12 -43
44 -136 70 -208 185 -506 449 -958 814 -1395 146 -176 480 -494 666 -636 36
-27 67 -51 70 -54 3 -3 46 -34 95 -69 166 -118 421 -272 571 -345 23 -12 94
-70 156 -131 197 -190 288 -268 468 -401 129 -95 183 -133 205 -144 6 -3 42
-26 80 -51 39 -25 77 -48 85 -52 8 -4 42 -23 75 -43 100 -59 372 -189 510
-245 212 -84 439 -154 650 -200 243 -53 366 -70 650 -94 95 -8 462 -8 560 0
44 3 103 8 130 11 44 3 132 14 245 30 19 3 42 7 50 9 8 2 35 7 60 10 25 4 104
20 175 36 416 93 867 270 1200 470 17 10 44 26 60 35 63 35 269 174 330 222 6
4 26 19 45 32 19 14 44 32 55 41 11 9 61 51 112 93 50 42 94 76 98 76 4 0 216
-209 471 -464 323 -323 465 -472 470 -492 4 -16 17 -45 29 -64 13 -20 359
-373 771 -784 830 -830 793 -799 923 -799 173 0 301 137 289 308 -3 36 -15 83
-27 109 -17 33 -163 187 -550 573 -359 360 -531 539 -541 563 -7 19 -23 49
-36 66 -12 16 -331 339 -709 717 l-686 686 94 118 c294 372 520 776 672 1203
21 58 41 114 46 125 37 89 116 420 153 640 14 81 19 118 31 220 20 172 26 592
12 795 -5 63 -10 117 -12 120 -1 3 -6 39 -9 80 -4 41 -9 82 -11 90 -3 8 -7 31
-9 50 -10 70 -15 96 -31 175 -145 714 -477 1391 -944 1929 -140 160 -146 169
-170 226 -24 56 -132 276 -168 340 -35 63 -94 165 -106 184 -162 259 -298 443
-482 656 -53 61 -348 354 -405 402 -30 26 -68 58 -85 73 -85 73 -249 196 -386
288 -343 230 -675 394 -1076 532 l-152 52 28 39 c61 84 59 27 57 1209 l-1
1080 -23 48 c-54 108 -149 167 -267 166 -51 0 -84 -6 -120 -23z m-685 -2920
c142 -12 294 -31 375 -46 28 -5 65 -12 82 -15 367 -60 880 -252 1237 -463 181
-106 427 -276 536 -371 14 -12 55 -47 92 -79 37 -31 120 -110 185 -175 96 -97
112 -116 83 -104 -19 8 -73 31 -119 51 -225 98 -569 204 -806 251 -161 31
-244 44 -379 60 -253 30 -599 34 -861 10 -86 -8 -159 -16 -185 -20 -36 -6
-149 -23 -195 -31 -180 -27 -618 -151 -805 -228 -516 -213 -927 -471 -1310
-821 -298 -272 -631 -683 -796 -982 -15 -26 -35 -59 -44 -73 -38 -56 -190
-375 -247 -520 -55 -139 -145 -410 -157 -472 -2 -12 -7 -30 -10 -38 -3 -8 -8
-26 -10 -40 -7 -36 -13 -60 -24 -105 -6 -22 -13 -56 -16 -75 -3 -19 -8 -46
-11 -60 -3 -14 -10 -56 -16 -95 -6 -38 -12 -81 -15 -95 -2 -14 -6 -50 -10 -80
-3 -30 -7 -66 -10 -80 -17 -96 -23 -525 -11 -705 11 -168 17 -229 22 -251 2
-11 7 -45 11 -75 22 -188 124 -628 173 -744 5 -11 27 -72 50 -135 l40 -115
-52 55 c-72 77 -155 174 -197 229 -20 26 -41 54 -48 62 -7 7 -35 46 -63 84
-27 39 -55 77 -62 86 -7 8 -17 24 -24 35 -6 10 -40 64 -75 119 -135 214 -270
493 -362 750 -13 39 -28 79 -32 90 -4 11 -8 25 -10 30 -1 6 -17 57 -34 115
-26 91 -37 131 -55 210 -45 197 -74 388 -91 605 -14 168 -7 612 11 705 1 8 6
42 9 75 4 33 9 71 11 85 3 14 7 41 10 60 3 19 10 60 15 90 6 30 13 69 15 85 3
17 8 38 11 47 3 9 6 25 8 35 10 48 49 189 79 288 150 485 398 942 731 1350 62
75 63 76 93 72 15 -2 46 0 68 5 133 30 221 132 230 271 4 60 6 63 57 110 288
263 738 540 1136 698 115 46 373 134 422 144 8 2 52 12 96 24 112 29 258 57
389 75 162 22 191 26 295 32 52 4 96 7 97 8 6 5 406 -3 473 -8z"/>
<path d="M13540 15026 c-26 -7 -62 -22 -80 -33 -50 -31 -1519 -1504 -1547
-1550 -20 -34 -32 -78 -38 -138 -5 -58 28 -143 77 -196 63 -67 144 -100 235
-93 111 8 89 -12 905 804 825 825 798 795 804 915 8 192 -172 339 -356 291z"/>
<path d="M14648 13865 c-29 -6 -69 -20 -88 -32 -50 -32 -1535 -1522 -1554
-1560 -58 -116 -34 -261 59 -346 84 -79 216 -101 318 -54 44 20 174 146 809
780 571 572 762 769 780 804 19 39 23 64 23 133 0 83 -2 87 -40 145 -75 112
-179 156 -307 130z"/>
<path d="M335 9529 c-105 -7 -127 -13 -178 -50 -106 -76 -145 -198 -105 -326
25 -85 91 -151 175 -179 57 -19 94 -19 1133 -18 1039 1 1076 1 1115 20 95 46
145 104 169 195 42 165 -69 336 -230 356 -61 7 -1969 9 -2079 2z"/>
<path d="M13825 9529 c-72 -6 -119 -25 -169 -69 -130 -115 -131 -308 -3 -432
12 -11 47 -32 77 -46 l55 -26 1085 0 1085 0 48 23 c136 63 202 206 162 347
-29 100 -122 184 -223 200 -50 8 -2032 11 -2117 3z"/>
<path d="M14847 8353 c-110 -37 -190 -151 -190 -272 0 -120 61 -215 170 -267
l56 -26 1067 0 c785 0 1081 3 1117 11 67 16 139 74 177 141 28 50 31 63 30
140 0 67 -5 94 -23 128 -32 62 -94 118 -157 142 -54 20 -71 20 -1127 19 -954
0 -1077 -2 -1120 -16z"/>
<path d="M3997 5469 c-26 -4 -66 -18 -88 -31 -23 -14 -379 -362 -791 -774
-831 -829 -800 -794 -801 -923 -1 -113 55 -205 158 -259 67 -35 177 -37 248
-4 39 17 196 169 808 781 834 834 801 797 803 921 2 185 -154 318 -337 289z"/>
<path d="M5060 4300 c-14 -4 -44 -19 -65 -33 -22 -14 -378 -364 -791 -779
-832 -834 -789 -784 -789 -918 0 -102 37 -166 142 -250 7 -6 36 -16 66 -24 82
-21 178 -7 239 36 23 16 1468 1456 1521 1515 56 63 69 211 27 298 -50 104
-152 168 -262 164 -35 -1 -74 -5 -88 -9z"/>
<path d="M8070 3789 c-125 -19 -225 -110 -246 -224 -4 -22 -7 -517 -7 -1100
l0 -1061 27 -59 c50 -111 152 -174 271 -170 139 4 249 98 272 230 5 28 8 525
8 1105 l-1 1055 -25 55 c-56 120 -175 188 -299 169z"/>
<path d="M9107 2613 c-65 -22 -130 -82 -164 -151 l-28 -57 -1 -1065 c0 -861 2
-1075 13 -1119 53 -211 324 -287 480 -135 22 22 50 62 64 89 l24 50 0 1095 0
1095 -24 47 c-28 59 -82 112 -140 140 -58 28 -160 33 -224 11z"/>
</g>
</svg>
