<?xml version="1.0" standalone="no"?>
<!DOCTYPE svg PUBLIC "-//W3C//DTD SVG 20010904//EN"
 "http://www.w3.org/TR/2001/REC-SVG-20010904/DTD/svg10.dtd">
<svg version="1.0" xmlns="http://www.w3.org/2000/svg"
 width="2382.000000pt" height="2382.000000pt" viewBox="0 0 2382.000000 2382.000000"
 preserveAspectRatio="xMidYMid meet">
<metadata>
Created by potrace 1.11, written by Peter Selinger 2001-2013
</metadata>
<g transform="translate(0.000000,2382.000000) scale(0.100000,-0.100000)"
fill="#000000" stroke="none">
<path d="M11685 18430 c-59 -9 -103 -39 -126 -88 -21 -43 -21 -48 -22 -1075 0
-568 3 -1043 8 -1057 31 -99 148 -145 244 -95 17 8 42 35 56 58 l25 44 0 1042
c0 860 -2 1047 -14 1074 -27 65 -102 107 -171 97z"/>
<path d="M6465 17576 c-68 -30 -105 -91 -100 -165 4 -44 25 -84 347 -641 404
-699 665 -1151 687 -1190 58 -105 93 -135 168 -143 78 -9 150 42 175 126 10
33 9 47 -6 91 -10 28 -26 62 -36 76 -9 14 -145 248 -302 520 -157 272 -315
546 -352 608 -36 62 -66 115 -66 117 0 1 -18 33 -40 69 -22 36 -40 68 -40 71
0 3 -8 18 -19 33 -28 41 -201 342 -201 351 0 4 -12 19 -27 33 -60 56 -126 71
-188 44z"/>
<path d="M17005 17575 c-16 -8 -37 -20 -46 -27 -13 -10 -356 -593 -439 -745
-11 -21 -30 -54 -41 -73 -63 -106 -201 -344 -227 -391 -29 -52 -189 -330 -297
-514 -97 -165 -107 -190 -101 -237 9 -62 25 -91 68 -122 64 -46 154 -39 216
17 12 11 22 25 22 30 0 6 6 18 14 26 7 9 27 41 43 71 27 49 82 144 268 465 32
55 65 114 75 130 9 17 60 104 112 195 321 556 398 689 468 810 43 74 83 146
88 160 17 45 2 122 -30 160 -43 50 -136 72 -193 45z"/>
<path d="M11607 15473 c-1 0 -96 -4 -212 -8 -115 -4 -232 -8 -260 -10 -27 -2
-97 -6 -155 -9 -58 -4 -118 -8 -135 -10 -16 -2 -73 -7 -125 -11 -52 -4 -101
-8 -110 -10 -8 -1 -46 -6 -85 -9 -38 -4 -81 -9 -95 -11 -14 -2 -50 -7 -80 -10
-30 -3 -64 -7 -75 -9 -11 -2 -47 -7 -80 -11 -32 -4 -66 -8 -75 -10 -8 -1 -37
-6 -63 -9 -27 -4 -57 -9 -67 -11 -9 -2 -35 -6 -56 -10 -135 -21 -213 -35 -394
-71 -96 -19 -193 -40 -215 -46 -22 -5 -49 -12 -60 -14 -104 -19 -532 -134
-735 -197 -275 -86 -640 -218 -835 -302 -16 -7 -75 -32 -130 -55 -183 -78
-639 -299 -790 -383 -33 -19 -90 -50 -126 -70 -57 -31 -132 -76 -343 -203
-226 -136 -672 -450 -925 -652 -72 -57 -297 -245 -355 -297 -34 -29 -72 -63
-86 -75 -141 -122 -511 -486 -670 -659 -52 -57 -104 -114 -115 -125 -22 -22
-241 -277 -268 -311 -8 -11 -40 -49 -69 -85 -78 -94 -181 -228 -282 -365 -49
-66 -101 -136 -115 -155 -15 -19 -48 -66 -74 -105 -25 -38 -83 -124 -127 -189
-44 -66 -80 -121 -80 -122 0 -1 -42 -69 -93 -150 -110 -176 -275 -471 -378
-676 l-74 -148 -37 0 c-48 0 -78 -29 -218 -214 -58 -76 -174 -229 -258 -339
-84 -111 -162 -213 -174 -227 -194 -229 -369 -420 -553 -605 -105 -104 -151
-146 -225 -205 -24 -19 -48 -39 -54 -45 -49 -44 -218 -152 -311 -199 -148 -74
-236 -100 -337 -101 -97 0 -126 13 -163 76 -30 50 -27 251 4 364 12 44 24 87
26 95 11 50 87 234 145 351 217 437 604 974 1139 1579 61 68 194 213 263 285
153 160 166 175 170 197 13 66 -37 128 -102 128 -34 0 -104 -44 -265 -167 -38
-30 -390 -259 -465 -303 -54 -32 -77 -45 -175 -101 -162 -93 -368 -189 -520
-244 -106 -38 -239 -50 -256 -24 -10 14 -7 114 4 154 63 228 348 708 631 1061
23 28 55 68 71 89 68 88 176 214 319 375 183 204 558 575 731 721 22 19 46 40
54 47 106 100 451 347 451 323 0 -5 -16 -37 -35 -71 -51 -91 -52 -123 -2 -177
26 -29 94 -31 128 -4 29 22 101 156 130 238 53 152 -1 262 -129 264 -51 1 -75
-6 -151 -41 -326 -153 -929 -698 -1520 -1375 -41 -47 -220 -271 -288 -361
-270 -357 -485 -726 -574 -984 -28 -83 -33 -109 -33 -200 -1 -89 2 -111 21
-145 35 -66 94 -112 168 -130 33 -8 136 -8 175 0 14 3 36 7 50 10 113 22 314
101 495 195 154 80 240 127 278 152 33 23 35 12 4 -22 -12 -14 -42 -50 -67
-80 -25 -30 -47 -57 -51 -60 -14 -12 -295 -378 -376 -490 -279 -386 -519 -813
-592 -1055 -7 -22 -15 -47 -18 -55 -3 -8 -7 -19 -8 -25 -2 -5 -10 -35 -19 -65
-8 -30 -18 -73 -22 -95 -3 -22 -8 -43 -10 -47 -2 -3 -7 -51 -10 -105 -14 -221
53 -376 195 -448 65 -32 106 -40 211 -38 146 2 332 66 520 179 45 27 89 54 98
59 9 6 43 29 74 53 31 23 59 42 61 42 2 0 -6 -30 -18 -66 -38 -116 -6 -206 83
-235 168 -56 542 232 1152 887 80 87 249 269 294 319 15 17 46 50 69 75 147
161 236 257 262 285 17 17 77 83 135 145 206 222 630 642 630 625 0 -14 -112
-241 -175 -356 -68 -123 -199 -346 -294 -499 -54 -86 -81 -129 -176 -275 -110
-170 -164 -254 -229 -355 -37 -58 -76 -117 -87 -132 -10 -15 -19 -30 -19 -33
0 -3 -17 -32 -38 -63 -64 -94 -134 -245 -135 -289 -1 -54 18 -96 54 -117 54
-32 118 -21 204 33 42 27 265 201 301 236 12 11 34 31 50 44 80 68 229 201
369 333 39 37 84 79 100 94 17 15 111 105 210 200 99 95 214 205 257 246 42
40 90 87 108 103 18 17 -10 -28 -62 -100 -319 -440 -392 -656 -256 -758 39
-29 130 -34 200 -12 69 23 211 97 319 168 196 128 524 387 728 577 165 153
361 323 366 319 8 -8 -164 -256 -391 -565 -180 -245 -231 -322 -291 -439 -97
-189 -104 -314 -23 -395 41 -41 116 -63 189 -55 226 24 651 304 1041 685 72
71 270 252 270 248 0 -2 -9 -22 -19 -44 -55 -113 -65 -220 -26 -282 87 -136
272 -150 554 -42 163 63 443 207 651 335 30 19 62 37 70 41 8 4 38 22 65 39
28 18 106 68 175 110 132 82 738 484 1075 714 110 75 208 141 217 146 10 6 48
31 86 56 196 135 547 356 695 437 31 18 81 45 111 62 64 35 434 220 440 220 3
0 42 17 88 38 46 22 137 60 203 86 66 27 129 52 140 57 31 13 243 85 305 104
156 47 355 96 450 110 20 3 47 8 60 10 119 24 412 27 509 6 124 -28 193 -62
248 -125 125 -142 65 -405 -176 -771 -99 -150 -320 -437 -412 -535 -8 -9 -52
-58 -98 -110 -86 -97 -467 -480 -576 -580 -209 -191 -279 -253 -440 -391 -100
-85 -200 -170 -224 -189 -24 -19 -48 -40 -55 -45 -6 -6 -58 -48 -114 -93 -57
-46 -109 -87 -115 -93 -15 -12 -122 -96 -166 -129 -18 -14 -38 -30 -44 -35
-29 -25 -527 -392 -667 -491 -422 -300 -906 -619 -1295 -854 -93 -56 -190
-115 -215 -130 -49 -30 -215 -126 -270 -157 -496 -277 -761 -413 -1070 -550
-30 -14 -73 -33 -95 -43 -210 -94 -537 -199 -675 -215 -160 -20 -261 26 -255
115 7 97 106 266 267 453 155 180 469 481 708 678 36 30 67 56 70 59 3 4 62
52 132 108 70 56 130 107 134 113 4 6 7 29 7 51 0 76 -89 126 -154 86 -73 -44
-312 -243 -599 -497 -125 -111 -383 -374 -476 -486 -267 -320 -350 -546 -264
-715 42 -82 138 -146 255 -170 65 -13 198 -8 281 11 27 6 57 12 66 14 147 30
619 206 765 284 10 5 54 26 98 47 154 71 464 229 615 312 25 14 106 58 180 99
74 42 160 90 191 109 31 18 67 39 80 47 53 28 399 238 572 346 205 129 628
407 787 518 47 33 117 81 155 108 104 72 268 190 370 264 121 89 268 198 280
208 6 5 69 53 140 108 138 105 456 357 516 409 19 17 55 47 80 68 24 20 55 46
69 58 14 12 45 38 69 58 24 21 49 42 55 47 6 6 65 57 131 115 149 131 314 285
512 478 47 45 89 82 94 82 4 0 23 -8 41 -18 75 -42 310 -134 373 -147 11 -2
52 -10 90 -18 74 -16 123 -24 196 -32 68 -8 297 -8 364 -1 87 9 138 16 155 21
8 2 31 7 50 10 110 18 327 87 456 145 l62 28 6 -41 c11 -65 67 -165 125 -223
96 -95 233 -145 406 -147 145 -2 244 11 435 58 32 8 156 46 175 54 11 5 49 19
85 32 113 39 372 154 531 235 45 22 51 23 44 7 -4 -10 -24 -63 -43 -118 -32
-90 -35 -111 -36 -210 -1 -95 2 -116 22 -155 36 -74 78 -117 145 -149 95 -45
199 -54 352 -31 129 19 368 89 490 144 17 8 64 28 105 46 84 37 285 136 403
198 89 48 394 215 447 245 19 11 58 32 85 47 128 69 171 93 180 101 23 22 21
3 -10 -71 -34 -79 -48 -124 -61 -190 -14 -73 0 -148 36 -199 143 -196 574 -76
1325 371 130 77 263 159 357 222 27 18 27 17 -12 -54 -35 -63 -84 -188 -96
-245 -11 -53 -11 -168 0 -217 61 -263 282 -326 687 -194 166 54 448 182 659
299 30 16 64 35 75 41 11 6 22 13 25 16 3 3 16 11 30 18 37 18 66 35 297 176
78 47 143 86 145 86 1 0 3 -57 3 -128 1 -86 7 -153 19 -207 58 -255 225 -411
481 -450 67 -10 221 -5 306 10 19 4 45 8 59 10 121 17 411 119 625 220 214
101 248 120 265 148 37 60 -1 142 -71 153 -29 5 -59 -6 -179 -64 -219 -106
-438 -192 -575 -227 -16 -5 -34 -9 -40 -11 -53 -14 -170 -32 -243 -38 -56 -4
-169 13 -225 34 -86 32 -168 128 -192 225 -4 17 -9 39 -12 50 -10 41 -12 252
-3 315 13 85 19 118 30 159 19 72 -37 138 -110 128 l-39 -5 -20 51 c-66 177
-248 567 -360 772 -77 139 -178 315 -218 378 -24 37 -43 70 -43 73 0 2 -8 17
-19 32 -10 15 -75 113 -144 217 -106 161 -366 529 -386 545 -3 3 -28 34 -56
70 -54 71 -251 313 -281 345 -11 11 -34 38 -53 60 -148 174 -386 423 -603 630
-553 530 -1199 1009 -1863 1380 -173 97 -238 131 -450 235 -236 116 -457 215
-645 289 -52 21 -104 42 -115 46 -11 5 -22 9 -25 10 -3 1 -12 5 -20 8 -103 44
-558 196 -800 266 -135 39 -472 123 -620 155 -157 34 -270 57 -300 62 -14 2
-41 7 -60 10 -19 4 -44 8 -55 10 -11 1 -58 10 -105 18 -47 8 -103 18 -125 21
-22 3 -67 10 -100 15 -33 5 -80 12 -105 15 -25 3 -61 8 -80 10 -19 3 -64 8
-100 11 -36 3 -67 7 -70 9 -3 2 -41 6 -85 10 -44 4 -91 8 -104 10 -12 2 -60 7
-105 10 -44 3 -95 8 -112 10 -18 3 -83 7 -145 11 -63 3 -136 7 -164 9 -146 10
-861 25 -868 18z m5773 -4511 c33 -27 21 -74 -42 -168 -168 -251 -702 -653
-1371 -1033 l-59 -33 38 53 c21 30 41 56 44 59 3 3 41 50 84 105 370 466 775
840 1053 973 128 61 214 76 253 44z m1605 -532 c-10 -11 -24 -20 -31 -20 -7 0
-14 -4 -16 -9 -3 -8 -226 -156 -356 -235 -26 -16 -69 -43 -97 -61 -85 -54
-148 -88 -141 -77 13 22 213 177 306 238 81 53 230 133 320 172 35 15 35 15
15 -8z"/>
<path d="M1975 14572 c-71 -25 -121 -103 -113 -177 9 -72 40 -105 168 -177 25
-14 117 -67 205 -118 88 -51 174 -101 190 -110 17 -9 89 -51 160 -92 72 -42
148 -86 170 -98 22 -12 104 -60 183 -106 79 -46 145 -84 146 -84 2 0 34 -18
71 -41 37 -22 84 -50 104 -61 20 -11 141 -81 270 -156 253 -146 287 -162 340
-156 144 18 196 206 82 294 -32 24 -42 30 -102 64 -19 10 -221 127 -449 259
-228 132 -431 249 -450 259 -19 11 -75 44 -125 73 -49 29 -110 63 -135 77 -25
14 -143 82 -262 152 -120 69 -222 126 -228 126 -5 0 -10 4 -10 9 0 5 -8 11
-17 15 -10 3 -33 15 -52 27 -36 22 -113 33 -146 21z"/>
<path d="M21566 14573 c-22 -6 -35 -13 -251 -138 -88 -51 -176 -102 -195 -113
-40 -22 -451 -260 -745 -430 -110 -64 -211 -122 -225 -129 -14 -8 -46 -26 -71
-41 -25 -15 -116 -67 -203 -117 -87 -49 -175 -105 -196 -123 -131 -111 -17
-325 150 -279 19 5 125 61 235 125 200 116 554 320 610 352 17 10 192 111 390
225 198 115 374 216 390 225 174 99 273 162 288 182 25 34 38 96 28 140 -21
90 -113 144 -205 121z"/>
<path d="M21494 10658 c-42 -11 -99 -76 -108 -121 -15 -78 34 -166 105 -190
27 -9 294 -12 1120 -12 1211 1 1118 -5 1176 71 23 30 28 47 28 93 0 72 -30
122 -88 149 -41 20 -63 20 -1122 20 -594 -1 -1094 -5 -1111 -10z"/>
</g>
</svg>
